Coordinates
version=1
nRows=15
nColumns=34
inDegrees=yes

Units are S.I. units (second, meters, Newtons, ...)
Angles are in degrees.

endheader
time	pelvis_tilt	pelvis_list	pelvis_rotation	pelvis_tx	pelvis_ty	pelvis_tz	hip_flexion_r	hip_adduction_r	hip_rotation_r	knee_angle_r	ankle_angle_r	subtalar_angle_r	mtp_angle_r	hip_flexion_l	hip_adduction_l	hip_rotation_l	knee_angle_l	socket_flexion	socket_adduction	socket_rotation	socket_tx	socket_ty	socket_tz	pros_ankle_rx	pros_ankle_ry	pros_ankle_rz	pros_ankle_tx	pros_ankle_ty	pros_ankle_tz	foot_flex	lumbar_extension	lumbar_bending	lumbar_rotation
      0.30000000	     -1.52742134	     -3.83520450	     -2.50260531	     -0.34322788	      1.04315365	      0.31527167	     12.42205667	     -1.83395636	     -8.39343762	    -60.51967135	      4.06983136	     16.24381624	     21.24396077	     10.43774913	     -0.52581552	     -1.72889591	    -18.44988641	      0.00000000	      0.00000000	      0.00000000	      0.00000000	     -0.02045616	      0.00000000	      0.00000000	      0.00000000	      0.00000000	      0.00000000	      0.00000000	      0.00000000	      4.77593173	     -8.02666776	     -3.96740079	    -24.57395860
      0.30416667	     -1.47922182	     -3.91307566	     -2.40386766	     -0.33802120	      1.04394831	      0.31509829	     12.89306018	     -1.73025279	     -8.47190835	    -60.24261971	      4.88442164	     15.94118342	     21.10307077	      9.95552246	     -0.57277141	     -1.63780852	    -18.23727066	      0.00000000	      0.00000000	      0.00000000	      0.00000000	     -0.02028185	      0.00000000	      0.00000000	      0.00000000	      0.00000000	      0.00000000	      0.00000000	      0.00000000	      4.90962124	     -8.11338995	     -3.84795181	    -24.73365721
      0.30833333	     -1.44263159	     -3.97774307	     -2.31616555	     -0.33269340	      1.04472911	      0.31491793	     13.35194180	     -1.65080524	     -8.56433843	    -59.89931233	      5.55840534	     15.70445091	     21.00919259	      9.46089761	     -0.60584919	     -1.57067434	    -17.98588135	      0.00000000	      0.00000000	      0.00000000	      0.00000000	     -0.02010295	      0.00000000	      0.00000000	      0.00000000	      0.00000000	      0.00000000	      0.00000000	      0.00000000	      5.00989839	     -8.09740621	     -3.72038333	    -24.83748805
      0.31250000	     -1.40331156	     -4.06091807	     -2.23650132	     -0.32749560	      1.04547118	      0.31476090	     13.81326672	     -1.53983942	     -8.63981080	    -59.53123167	      6.24908048	     15.46520282	     20.89581345	      8.98698570	     -0.66415382	     -1.50219489	    -17.77174312	      0.00000000	      0.00000000	      0.00000000	      0.00000000	     -0.01993167	      0.00000000	      0.00000000	      0.00000000	      0.00000000	      0.00000000	      0.00000000	      0.00000000	      5.12739674	     -8.14403063	     -3.58008578	    -24.94800846
      0.31666667	     -1.37489629	     -4.14823450	     -2.15837417	     -0.32227496	      1.04619127	      0.31461822	     14.27222812	     -1.41829962	     -8.71380785	    -59.11721959	      6.86523098	     15.24852994	     20.78279480	      8.52057353	     -0.72938577	     -1.44412358	    -17.54775429	      0.00000000	      0.00000000	      0.00000000	      0.00000000	     -0.01977447	      0.00000000	      0.00000000	      0.00000000	      0.00000000	      0.00000000	      0.00000000	      0.00000000	      5.23687803	     -8.16338323	     -3.43744854	    -25.04680383
      0.32083333	     -1.34900904	     -4.23922803	     -2.08975662	     -0.31709700	      1.04686884	      0.31450544	     14.72866796	     -1.28753267	     -8.78435800	    -58.66656564	      7.44304551	     15.05218139	     20.67075060	      8.06568475	     -0.80364023	     -1.39217123	    -17.33879323	      0.00000000	      0.00000000	      0.00000000	      0.00000000	     -0.01961578	      0.00000000	      0.00000000	      0.00000000	      0.00000000	      0.00000000	      0.00000000	      0.00000000	      5.34813422	     -8.18769161	     -3.29308580	    -25.13884206
      0.32500000	     -1.37103275	     -4.24790597	     -2.04585473	     -0.31201629	      1.04745536	      0.31440477	     15.26049780	     -1.27604337	     -8.86454820	    -58.20163617	      7.62498869	     14.99745141	     20.64658223	      7.69679575	     -0.78989468	     -1.37402032	    -17.18210470	      0.00000000	      0.00000000	      0.00000000	      0.00000000	     -0.01927341	      0.00000000	      0.00000000	      0.00000000	      0.00000000	      0.00000000	      0.00000000	      0.00000000	      5.48775280	     -8.28407404	     -3.25835758	    -25.15841467
      0.32916667	     -1.30860346	     -4.42291981	     -1.96004243	     -0.30678992	      1.04815887	      0.31430207	     15.61950967	     -1.01270558	     -8.91559206	    -57.64507509	      8.47802348	     14.74019515	     20.53283352	      7.18531982	     -0.95842358	     -1.30944999	    -16.94613628	      0.00000000	      0.00000000	      0.00000000	      0.00000000	     -0.01928102	      0.00000000	      0.00000000	      0.00000000	      0.00000000	      0.00000000	      0.00000000	      0.00000000	      5.56043891	     -8.21770530	     -3.01598413	    -25.29407999
      0.33333333	     -1.33688879	     -4.42864768	     -1.91579360	     -0.30176267	      1.04865186	      0.31422140	     16.14556404	     -0.99376243	     -8.98847638	    -57.13012211	      8.65075777	     14.68762676	     20.49891670	      6.83570645	     -0.94435966	     -1.29917242	    -16.80100921	      0.00000000	      0.00000000	      0.00000000	      0.00000000	     -0.01896987	      0.00000000	      0.00000000	      0.00000000	      0.00000000	      0.00000000	      0.00000000	      0.00000000	      5.70150196	     -8.33506835	     -2.97059086	    -25.31640776
      0.33750000	     -1.26024763	     -4.66495025	     -1.83669354	     -0.29664746	      1.04931866	      0.31413879	     16.46269265	     -0.63622077	     -9.01442808	    -56.47910159	      9.42328976	     14.40506513	     20.24597734	      6.33748109	     -1.18647133	     -1.24177114	    -16.61382932	      0.00000000	      0.00000000	      0.00000000	      0.00000000	     -0.01904263	      0.00000000	      0.00000000	      0.00000000	      0.00000000	      0.00000000	      0.00000000	      0.00000000	      5.79397308	     -8.37023762	     -2.61774863	    -25.48990879
      0.34166667	     -1.28646033	     -4.66043862	     -1.79377221	     -0.29165843	      1.04975619	      0.31410029	     16.97256896	     -0.61818649	     -9.08557772	    -55.91044365	      9.56411493	     14.36304467	     20.20402129	      5.99525729	     -1.16334527	     -1.23153218	    -16.47889350	      0.00000000	      0.00000000	      0.00000000	      0.00000000	     -0.01873873	      0.00000000	      0.00000000	      0.00000000	      0.00000000	      0.00000000	      0.00000000	      0.00000000	      5.92607331	     -8.47608841	     -2.59762281	    -25.50599097
      0.34583333	     -1.18968981	     -4.90658697	     -1.71429494	     -0.28656135	      1.05042400	      0.31404709	     17.23263939	     -0.24100134	     -9.10955396	    -55.15347933	     10.18382679	     14.11897315	     19.89351714	      5.47730347	     -1.41845153	     -1.17787378	    -16.29043101	      0.00000000	      0.00000000	      0.00000000	      0.00000000	     -0.01882485	      0.00000000	      0.00000000	      0.00000000	      0.00000000	      0.00000000	      0.00000000	      0.00000000	      6.01304562	     -8.48326301	     -2.27326406	    -25.66986110
      0.35000000	     -1.22584128	     -4.89300418	     -1.66052783	     -0.28155006	      1.05077607	      0.31402253	     17.73159278	     -0.22680609	     -9.16935468	    -54.53193900	     10.31650063	     14.08021669	     19.83870011	      5.14841430	     -1.39188578	     -1.17330365	    -16.15928430	      0.00000000	      0.00000000	      0.00000000	      0.00000000	     -0.01851229	      0.00000000	      0.00000000	      0.00000000	      0.00000000	      0.00000000	      0.00000000	      0.00000000	      6.14932809	     -8.60517601	     -2.25259654	    -25.68510504
      0.35416667	     -1.14986281	     -5.10279953	     -1.57721102	     -0.27645923	      1.05140225	      0.31404806	     17.97946497	      0.12845344	     -9.18523892	    -53.69499731	     10.78164868	     13.91261632	     19.57051406	      4.67362399	     -1.61660225	     -1.10618309	    -15.99774078	      0.00000000	      0.00000000	      0.00000000	      0.00000000	     -0.01841945	      0.00000000	      0.00000000	      0.00000000	      0.00000000	      0.00000000	      0.00000000	      0.00000000	      6.24709895	     -8.58789893	     -2.04220042	    -25.81637834
      0.35833333	     -0.94614817	     -5.30007461	     -1.51150507	     -0.27160786	      1.05212469	      0.31405640	     18.14749419	      0.47632339	     -9.14733956	    -52.95124375	     11.38149383	     13.67271823	     15.23280312	      4.07202610	     -1.82411945	     -1.11703660	    -15.83455255	      0.00000000	      0.00000000	      0.00000000	      0.00000000	     -0.01839999	      0.00000000	      0.00000000	      0.00000000	      0.00000000	      0.00000000	      0.00000000	      0.00000000	      6.36921044	     -9.03793976	     -1.69380692	    -25.88766297
